TITLE "Colours"
PERFORMER "Graffiti6"
REM GENRE "pop"
REM DATE 2010
REM DISCNUMBER 1
REM TOTALDISCS 1
REM DISCID A60C450C
REM REPLAYGAIN_ALBUM_GAIN -7.51 dB
REM REPLAYGAIN_ALBUM_PEAK 1.000000
FILE "01 - Stone In My Heart.wav" WAVE
  TRACK 01 AUDIO
    TITLE "Stone In My Heart"
    ISRC GBC3Q1000024
    REM REPLAYGAIN_TRACK_GAIN -7.74 dB
    REM REPLAYGAIN_TRACK_PEAK 0.999268
    INDEX 01 00:00:00
FILE "02 - Annie You Save Me.wav" WAVE
  TRACK 02 AUDIO
    TITLE "Annie You Save Me"
    ISRC GBC3Q1000016
    REM REPLAYGAIN_TRACK_GAIN -7.65 dB
    REM REPLAYGAIN_TRACK_PEAK 0.999695
    INDEX 01 00:00:00
FILE "03 - Stare Into The Sun.wav" WAVE
  TRACK 03 AUDIO
    TITLE "Stare Into The Sun"
    ISRC GBC3Q1000015
    REM REPLAYGAIN_TRACK_GAIN -8.54 dB
    REM REPLAYGAIN_TRACK_PEAK 0.999969
    INDEX 01 00:00:00
FILE "04 - This Man.wav" WAVE
  TRACK 04 AUDIO
    TITLE "This Man"
    ISRC GBC3Q1000018
    REM REPLAYGAIN_TRACK_GAIN -6.76 dB
    REM REPLAYGAIN_TRACK_PEAK 0.890320
    INDEX 01 00:00:00
FILE "05 - Free.wav" WAVE
  TRACK 05 AUDIO
    TITLE "Free"
    ISRC GBC3Q1000013
    REM REPLAYGAIN_TRACK_GAIN -7.87 dB
    REM REPLAYGAIN_TRACK_PEAK 1.000000
    INDEX 01 00:00:00
FILE "06 - Calm The Storm.wav" WAVE
  TRACK 06 AUDIO
    TITLE "Calm The Storm"
    ISRC GBC3Q1000019
    REM REPLAYGAIN_TRACK_GAIN -6.30 dB
    REM REPLAYGAIN_TRACK_PEAK 0.999359
    INDEX 01 00:00:00
FILE "07 - Colours.wav" WAVE
  TRACK 07 AUDIO
    TITLE "Colours"
    ISRC GBC3Q1000020
    REM REPLAYGAIN_TRACK_GAIN -6.29 dB
    REM REPLAYGAIN_TRACK_PEAK 1.000000
    INDEX 01 00:00:00
FILE "08 - Goodbye Geoffrey Drake.wav" WAVE
  TRACK 08 AUDIO
    TITLE "Goodbye Geoffrey Drake"
    ISRC GBC3Q1000021
    REM REPLAYGAIN_TRACK_GAIN -6.68 dB
    REM REPLAYGAIN_TRACK_PEAK 0.811707
    INDEX 01 00:00:00
FILE "09 - Never Look Back.wav" WAVE
  TRACK 09 AUDIO
    TITLE "Never Look Back"
    ISRC GBC3Q1000022
    REM REPLAYGAIN_TRACK_GAIN -7.56 dB
    REM REPLAYGAIN_TRACK_PEAK 0.999420
    INDEX 01 00:00:00
FILE "10 - Stop Mary.wav" WAVE
  TRACK 10 AUDIO
    TITLE "Stop Mary"
    ISRC GBC3Q1000014
    REM REPLAYGAIN_TRACK_GAIN -8.25 dB
    REM REPLAYGAIN_TRACK_PEAK 0.943237
    INDEX 01 00:00:00
FILE "11 - Lay Me Down.wav" WAVE
  TRACK 11 AUDIO
    TITLE "Lay Me Down"
    ISRC GBC3Q1000012
    REM REPLAYGAIN_TRACK_GAIN -8.41 dB
    REM REPLAYGAIN_TRACK_PEAK 0.999298
    INDEX 01 00:00:00
FILE "12 - Over You.wav" WAVE
  TRACK 12 AUDIO
    TITLE "Over You"
    ISRC GBC3Q1000023
    REM REPLAYGAIN_TRACK_GAIN -6.91 dB
    REM REPLAYGAIN_TRACK_PEAK 1.000000
    INDEX 01 00:00:00
